<?xml version="1.0" encoding="utf-8"?>
<!-- Generator: Adobe Illustrator 24.2.1, SVG Export Plug-In . SVG Version: 6.00 Build 0)  -->
<svg version="1.1" id="Ebene_1" xmlns="http://www.w3.org/2000/svg" xmlns:xlink="http://www.w3.org/1999/xlink" x="0px" y="0px"
	 viewBox="0 0 335.64 148.14" style="enable-background:new 0 0 335.64 148.14;" xml:space="preserve">
<style type="text/css">
	.st0{fill:#E3312A;}
	.st1{fill:#0019A8;}
	.st2{fill:#FFFFFF;}
</style>
<g>
	<path class="st0" d="M253.68,115.7c0.21-1.1,0.99-3.09,3.44-3.09c2.37,0,3.13,1.99,3.13,3.09H253.68z M262.54,125.36
		c-0.76,0.17-1.41,0.45-3.23,0.45c-4.71,0-5.81-4.71-5.81-7.18v-0.96h9.42v-0.79c0-3.58-1.85-6.22-5.7-6.22
		c-4.37,0-6.39,3.13-6.39,8.01c0,6.05,2.92,9.11,7.97,9.11c1.51,0,2.75-0.17,3.75-0.48V125.36z M243.06,127.39h2.34v-14.4h4.71
		v-1.96h-4.71v-1.79c0-2.2,0.72-3.71,3.44-3.71c1,0,1.75,0.24,2.37,0.45v-2.1c-0.76-0.17-1.62-0.31-2.79-0.31
		c-4.09,0-5.36,2.51-5.36,5.19v2.27h-2.75v1.96h2.75V127.39z M234.02,106.76h3.09v-3.09h-3.09V106.76z M234.39,127.39h2.34v-16.36
		h-2.34V127.39z M220.37,127.39h11.17v-2.23h-8.49v-21.48h-2.68V127.39z M200.89,127.39h2.34v-6.77c0-4.4,1.82-7.46,5.53-7.46v-2.51
		c-3.75,0-4.98,2.44-5.47,3.54h-0.07v-3.16h-2.34V127.39z M186.08,119.21c0-4.09,1.34-6.6,3.99-6.6c2.68,0,4.06,2.51,4.06,6.6
		c0,4.13-1.38,6.6-4.06,6.6C187.42,125.81,186.08,123.33,186.08,119.21 M190.06,127.77c4.84,0,6.74-3.75,6.74-8.52
		c0-4.77-1.89-8.59-6.74-8.59c-4.81,0-6.67,3.82-6.67,8.59C183.4,124.02,185.25,127.77,190.06,127.77 M175.35,127.39h2.34v-14.4
		h4.71v-1.96h-4.71v-1.79c0-2.2,0.72-3.71,3.44-3.71c1,0,1.75,0.24,2.37,0.45v-2.1c-0.75-0.17-1.61-0.31-2.78-0.31
		c-4.09,0-5.36,2.51-5.36,5.19v2.27h-2.75v1.96h2.75V127.39z M157.07,117.32c-1.31-0.69-2.96-1.23-2.96-2.58
		c0-1.17,1.31-2.13,3.3-2.13c1.65,0,3.26,0.55,3.82,0.76v-2.17c-0.76-0.17-2.1-0.55-3.85-0.55c-3.64,0-5.6,1.68-5.6,4.33
		c0,2.68,2.2,3.58,3.71,4.43l1.48,0.79c0.96,0.55,2.95,1.27,2.95,2.96c0,1.89-1.72,2.64-3.99,2.64c-1.86,0-3.81-0.72-4.23-0.86v2.13
		c0.65,0.21,2.34,0.69,4.47,0.69c3.81,0,6.08-1.69,6.08-4.95c0-2.82-2.1-3.78-3.82-4.68L157.07,117.32z M139.89,115.7
		c0.21-1.1,1-3.09,3.44-3.09c2.37,0,3.13,1.99,3.13,3.09H139.89z M148.75,125.36c-0.76,0.17-1.41,0.45-3.23,0.45
		c-4.71,0-5.81-4.71-5.81-7.18v-0.96h9.42v-0.79c0-3.58-1.85-6.22-5.7-6.22c-4.37,0-6.39,3.13-6.39,8.01c0,6.05,2.92,9.11,7.97,9.11
		c1.51,0,2.75-0.17,3.75-0.48V125.36z M129.51,117.32c-1.31-0.69-2.96-1.23-2.96-2.58c0-1.17,1.31-2.13,3.3-2.13
		c1.65,0,3.27,0.55,3.82,0.76v-2.17c-0.76-0.17-2.1-0.55-3.85-0.55c-3.64,0-5.6,1.68-5.6,4.33c0,2.68,2.2,3.58,3.71,4.43l1.48,0.79
		c0.96,0.55,2.96,1.27,2.96,2.96c0,1.89-1.72,2.64-3.99,2.64c-1.86,0-3.81-0.72-4.23-0.86v2.13c0.65,0.21,2.34,0.69,4.47,0.69
		c3.81,0,6.08-1.69,6.08-4.95c0-2.82-2.1-3.78-3.82-4.68L129.51,117.32z M118.13,119.96c0,1.96-0.21,2.34-0.62,3.3
		c-0.69,1.58-2.34,2.54-3.82,2.54c-1.2,0-2.3-0.82-2.3-2.37c0-2.78,3.64-3.47,5.36-3.47H118.13z M118.2,127.39h2.27v-11.48
		c0-2.06-0.41-5.26-5.5-5.26c-4.47,0-5.84,2.51-5.88,4.57h2.61c0.17-1.28,0.69-2.61,3.33-2.61c1.24,0,2.61,0.45,2.99,2.27
		c0.1,0.55,0.1,2.34,0.1,3.13c-0.55,0.1-1.03,0.1-1.62,0.1c-2.85,0-7.8,1.27-7.8,5.08c0,2.92,1.72,4.57,4.4,4.57
		c2.99,0,4.6-1.75,5.02-2.55h0.07V127.39z M105.04,113.98h-8.11v2.23h5.43v8.01c-0.41,0.38-1.96,1.31-4.36,1.31
		c-5.57,0-6.36-6.19-6.36-10.79c0-4.3,1.13-9.21,5.95-9.21c3.4,0,4.57,2.47,4.57,4.6h3.03c0-3.95-2.92-6.84-7.63-6.84
		c-6.5,0-8.83,5.39-8.83,11.44c0,6.87,1.99,13.03,9.48,13.03c3.71,0,6.25-1.75,6.84-2.27V113.98z"/>
	<path class="st1" d="M234.83,60.45c0-1.13,0.67-1.71,1.78-1.7l3.99-0.01c3.69,0,6.69,1.64,6.7,5.47c0.01,3.84-3.01,5.51-6.7,5.5
		l-5.76-0.01L234.83,60.45z M218.36,90.29h16.48l0-15.93l5.02,0.01l9.25,15.9h16.89l-11.41-16.65c5.04-1.18,8.8-4.14,8.6-9.62
		c-0.17-4.55-3.29-8.36-10.55-9.68c-2.29-0.41-4.43-0.51-7.52-0.53h-21.54c-3.28,0.03-5.22,1.89-5.22,5.23L218.36,90.29z
		 M214.32,58.91v-5.09l-28.58,0c-3.28,0-5.22,1.86-5.22,5.2v31.26l33.96,0v-5.04h-17.43V74.29h16.88v-5.07h-16.88l0.01-8.61
		c0-1.13,0.67-1.72,1.78-1.7H214.32z M176.8,53.8h-16.96c-3.92,0-6.78,0.07-9.64,0.97c-4.04,1.26-6.61,4.03-6.81,7.5
		c-0.25,4.39,2.86,7.78,8.8,10.79c1.49,0.76,3.14,1.68,4.68,2.52c3.27,1.78,5.48,3.35,5.41,5.72c-0.1,3.24-3.21,3.86-6.98,3.87
		h-12.09v5.11c0,0,11.62,0,18.02,0c15.41-0.01,16.71-6.48,16.75-10.11c0.04-3.8-1.31-7.08-8.61-11.01c-3.34-1.8-6.04-3.37-8.12-4.66
		c-1.87-1.15-2.4-2.47-1.98-3.73c0.44-1.28,1.82-1.88,4.28-1.88h13.24V53.8z M141.64,53.81h-16.96c-3.92,0-6.78,0.05-9.64,0.94
		c-4.04,1.27-6.61,4.02-6.81,7.5c-0.25,4.39,2.86,7.78,8.8,10.79c1.49,0.76,3.14,1.69,4.68,2.52c3.27,1.77,5.48,3.35,5.41,5.72
		c-0.1,3.24-3.21,3.85-6.98,3.87h-11.96v5.11c0,0,11.49,0,17.9,0c15.41-0.01,16.71-6.48,16.75-10.11c0.04-3.8-1.32-7.08-8.61-11.01
		c-3.34-1.79-6.04-3.37-8.12-4.66c-1.87-1.16-2.4-2.47-1.97-3.73c0.44-1.28,1.82-1.89,4.28-1.89l13.24,0V53.81z M53.25,90.27H66.9
		V53.8H52.59c-1.45-0.01-2.36,0.49-3.07,2.17L40.67,76.5l-8.86-20.57c-0.67-1.57-1.39-2.13-3.81-2.12H11.95v36.46h8.38V62.85
		l11.62,27.41h9.82l11.49-27.42L53.25,90.27z M90.42,58.9c-1.11-0.01-1.78,0.57-1.78,1.7l-0.02,8.61h16.88l0,5.07H88.63l0,10.93
		h17.43v5.05l-33.97,0V59.01c0-3.34,1.95-5.2,5.22-5.2l28.58,0l0,5.09H90.42z"/>
	<path class="st0" d="M296.66,20.38c-14.94,0-27.04,12.11-27.04,27.04c0,14.93,12.1,27.04,27.04,27.04
		c14.93,0,27.03-12.11,27.03-27.04C323.69,32.49,311.59,20.38,296.66,20.38"/>
</g>
<path class="st2" d="M296.65,69.8l-21.55-15.97h43.13L296.65,69.8z M294.61,25.03v24.68h-19.53L294.61,25.03z M298.7,25.03
	l19.53,24.68H298.7V25.03z"/>
</svg>
